<svg width="21" height="24" viewBox="0 0 21 24" fill="none" xmlns="http://www.w3.org/2000/svg">
<path d="M6.25343 14.378C6.25343 14.2738 6.25343 14.1621 6.25343 14.0579C6.25343 10.1194 6.25343 6.18094 6.25343 2.24247C6.25343 1.15548 6.88592 0.329066 7.89944 0.0684863C9.17968 -0.2591 10.4675 0.626872 10.5895 1.90744C10.6047 2.06378 10.6123 2.22013 10.6123 2.38392C10.6123 4.06652 10.6123 5.74913 10.6123 7.42428C10.6123 7.53596 10.6123 7.64763 10.6123 7.81143C11.2143 7.40939 11.8316 7.25304 12.5022 7.41684C13.1804 7.58063 13.6605 7.99011 13.9729 8.59317C15.3065 7.43173 17.1202 8.01989 17.6384 9.49403C17.7146 9.44936 17.7832 9.41213 17.8441 9.36746C19.132 8.56339 20.8085 9.33768 20.9761 10.8267C20.9837 10.8937 20.9914 10.9533 20.9914 11.0203C20.9837 13.2836 21.0371 15.5544 20.9456 17.8177C20.8237 20.7883 18.3013 23.4388 15.2837 23.8855C14.8264 23.9525 14.354 23.9897 13.8967 23.9897C12.5098 23.9897 11.1153 24.0344 9.73597 23.9376C7.50318 23.7812 5.7581 22.724 4.59979 20.8628C3.22049 18.6441 1.92502 16.3733 0.591439 14.1249C0.454271 13.8941 0.309483 13.6633 0.179935 13.4251C-0.208707 12.7029 0.0503879 11.8765 0.78195 11.4893C2.37462 10.6331 4.20353 11.1171 5.14084 12.6359C5.499 13.2166 5.8343 13.8048 6.18484 14.3929C6.21533 14.3855 6.23819 14.3855 6.25343 14.378Z" fill="white"/>
</svg>
